<svg xmlns="http://www.w3.org/2000/svg" viewBox="0 0 309.36 375.69"><defs><style>.cls-1{fill:#ff7b00;}.cls-2{fill:#a928b4;}.cls-3{fill:#ff1169;}</style></defs><title>myLogo</title><g id="Layer_3" data-name="Layer 3"><path class="cls-1" d="M904,217l48,73-26,4s-20,6-21,25v51s-50,8-72,87V299s11-65,69-81" transform="translate(-832.39 -210.99)"/><path class="cls-2" d="M1101.28,415.42c17.52-14.55,29.56-32.77,35.3-54.46,11.4-43.09,4.4-82.33-25.75-116.81-18.26-20.88-41.92-30.65-68-32-37.36-2-74.91-.9-112.36-.23-9.39.17-18.72,3.75-29,6a36.15,36.15,0,0,0,1.73,4.54c4.34,7,8.73,14,13.11,21L903,222l13.31,21.4q5.52,8.79,11,17.62l16.16,26c3.26,3.27,7.13,4,12.4,4,27.45-.31,54.91,0,82.36-.13,13.62-.08,23.48,5.44,29.75,17.72,10.07,19.72-.06,52.13-29.93,50.9-16.55-.68-33.16-.77-49.73-.38l49.51,79.58C1061.85,438.61,1082.76,430.81,1101.28,415.42Z" transform="translate(-832.39 -210.99)"/><path class="cls-3" d="M1083.61,510.68c-2.58-1.81-5.65-2.4-9.58-2.38-45.41.25-90.83.33-136.24,0-10.76-.08-21-4.06-27.38-13.06-8.16-11.58-9.73-24.73-3.63-38,6.31-13.7,17.45-18.78,32.32-18.61,32.83.39,65.68-.24,98.52,0l1.18,0-49.51-79.58q-4,.09-8,.23c-22.13.73-44.19-1.72-66.46,2.69-27.1,5.37-46.84,20.33-61.84,41.8-18.24,26.1-23.7,55.81-19,87.26,4.82,32.37,19.89,59.17,46.56,78.13a91.45,91.45,0,0,0,54.58,17.48c62.35-.42,124.7-.14,187.05-.16,2.47,0,4.93-.23,8-.38-.22-.53-.4-1-.59-1.54Z" transform="translate(-832.39 -210.99)"/></g></svg>